<svg width="800" height="600" viewBox="0 0 800 600" xmlns="http://www.w3.org/2000/svg" role="img" aria-label="Sample project image">
  <defs>
    <linearGradient id="bg" x1="0%" y1="0%" x2="100%" y2="100%">
      <stop offset="0%" stop-color="#0f172a"/>
      <stop offset="100%" stop-color="#1e293b"/>
    </linearGradient>
    <linearGradient id="panel" x1="0%" y1="0%" x2="100%" y2="100%">
      <stop offset="0%" stop-color="#334155"/>
      <stop offset="100%" stop-color="#1e293b"/>
    </linearGradient>
  </defs>
  <rect width="800" height="600" fill="url(#bg)"/>
  <rect x="80" y="80" width="640" height="420" rx="30" fill="url(#panel)" stroke="#64748b" stroke-width="6"/>
  <rect x="120" y="130" width="220" height="280" rx="18" fill="#0f172a" stroke="#94a3b8" stroke-width="4"/>
  <rect x="380" y="130" width="260" height="80" rx="16" fill="#0f172a" stroke="#94a3b8" stroke-width="4"/>
  <rect x="380" y="230" width="260" height="60" rx="16" fill="#0f172a" stroke="#94a3b8" stroke-width="4"/>
  <rect x="380" y="320" width="260" height="60" rx="16" fill="#0f172a" stroke="#94a3b8" stroke-width="4"/>
  <rect x="380" y="410" width="260" height="60" rx="16" fill="#0f172a" stroke="#94a3b8" stroke-width="4"/>
  <circle cx="200" cy="260" r="70" fill="#334155" stroke="#94a3b8" stroke-width="4"/>
  <line x1="150" y1="260" x2="170" y2="260" stroke="#cbd5e1" stroke-width="8"/>
  <line x1="200" y1="210" x2="200" y2="310" stroke="#cbd5e1" stroke-width="8"/>
  <text x="320" y="170" font-family="Outfit, Arial, sans-serif" font-size="32" fill="#e2e8f0">Network Audit Toolkit</text>
  <text x="320" y="260" font-family="Outfit, Arial, sans-serif" font-size="22" fill="#94a3b8">Scan summary</text>
  <text x="320" y="310" font-family="Outfit, Arial, sans-serif" font-size="20" fill="#cbd5e1">Packet flow</text>
  <text x="320" y="400" font-family="Outfit, Arial, sans-serif" font-size="20" fill="#cbd5e1">Threat meter</text>
  <rect x="145" y="430" width="120" height="24" rx="12" fill="#1e293b"/>
  <rect x="145" y="470" width="180" height="24" rx="12" fill="#1e293b"/>
</svg>
